<mxfile host="65bd71144e">
    <diagram id="ApIiYuiafU-KZh3Sr940" name="ページ1">
        <mxGraphModel dx="2201" dy="771" grid="1" gridSize="10" guides="1" tooltips="1" connect="1" arrows="1" fold="1" page="1" pageScale="1" pageWidth="827" pageHeight="1169" math="0" shadow="0">
            <root>
                <mxCell id="e_gC2h08NWML-KnoMyAT-0"/>
                <mxCell id="e_gC2h08NWML-KnoMyAT-1" parent="e_gC2h08NWML-KnoMyAT-0"/>
                <mxCell id="e_gC2h08NWML-KnoMyAT-2" value="&lt;font style=&quot;font-size: 30px&quot;&gt;V&lt;/font&gt;" style="rounded=0;whiteSpace=wrap;html=1;" parent="e_gC2h08NWML-KnoMyAT-1" vertex="1">
                    <mxGeometry x="-100" y="80" width="60" height="60" as="geometry"/>
                </mxCell>
                <mxCell id="e_gC2h08NWML-KnoMyAT-3" value="&lt;font style=&quot;font-size: 30px&quot;&gt;Y&lt;/font&gt;" style="rounded=0;whiteSpace=wrap;html=1;" parent="e_gC2h08NWML-KnoMyAT-1" vertex="1">
                    <mxGeometry x="260" y="80" width="60" height="60" as="geometry"/>
                </mxCell>
                <mxCell id="e_gC2h08NWML-KnoMyAT-4" value="&lt;font style=&quot;font-size: 30px&quot;&gt;W&lt;/font&gt;" style="rounded=0;whiteSpace=wrap;html=1;" parent="e_gC2h08NWML-KnoMyAT-1" vertex="1">
                    <mxGeometry x="-40" y="80" width="60" height="60" as="geometry"/>
                </mxCell>
                <mxCell id="e_gC2h08NWML-KnoMyAT-5" value="&lt;font style=&quot;font-size: 30px&quot;&gt;Z&lt;br&gt;&lt;/font&gt;" style="rounded=0;whiteSpace=wrap;html=1;" parent="e_gC2h08NWML-KnoMyAT-1" vertex="1">
                    <mxGeometry x="680" y="80" width="60" height="60" as="geometry"/>
                </mxCell>
                <mxCell id="e_gC2h08NWML-KnoMyAT-6" value="&lt;font style=&quot;font-size: 30px&quot;&gt;Y&lt;/font&gt;" style="rounded=0;whiteSpace=wrap;html=1;" parent="e_gC2h08NWML-KnoMyAT-1" vertex="1">
                    <mxGeometry x="500" y="80" width="60" height="60" as="geometry"/>
                </mxCell>
                <mxCell id="e_gC2h08NWML-KnoMyAT-7" value="&lt;font style=&quot;font-size: 30px&quot;&gt;Z&lt;/font&gt;" style="rounded=0;whiteSpace=wrap;html=1;" parent="e_gC2h08NWML-KnoMyAT-1" vertex="1">
                    <mxGeometry x="140" y="80" width="60" height="60" as="geometry"/>
                </mxCell>
                <mxCell id="e_gC2h08NWML-KnoMyAT-8" value="&lt;font style=&quot;font-size: 30px&quot;&gt;W&lt;/font&gt;" style="rounded=0;whiteSpace=wrap;html=1;" parent="e_gC2h08NWML-KnoMyAT-1" vertex="1">
                    <mxGeometry x="380" y="80" width="60" height="60" as="geometry"/>
                </mxCell>
                <mxCell id="e_gC2h08NWML-KnoMyAT-9" value="&lt;font style=&quot;font-size: 30px&quot;&gt;Y&lt;/font&gt;" style="rounded=0;whiteSpace=wrap;html=1;" parent="e_gC2h08NWML-KnoMyAT-1" vertex="1">
                    <mxGeometry x="80" y="80" width="60" height="60" as="geometry"/>
                </mxCell>
                <mxCell id="e_gC2h08NWML-KnoMyAT-10" value="&lt;font style=&quot;font-size: 30px&quot;&gt;X&lt;/font&gt;" style="rounded=0;whiteSpace=wrap;html=1;" parent="e_gC2h08NWML-KnoMyAT-1" vertex="1">
                    <mxGeometry x="20" y="80" width="60" height="60" as="geometry"/>
                </mxCell>
                <mxCell id="e_gC2h08NWML-KnoMyAT-11" value="&lt;font style=&quot;font-size: 30px&quot;&gt;V&lt;/font&gt;" style="rounded=0;whiteSpace=wrap;html=1;" parent="e_gC2h08NWML-KnoMyAT-1" vertex="1">
                    <mxGeometry x="320" y="80" width="60" height="60" as="geometry"/>
                </mxCell>
                <mxCell id="e_gC2h08NWML-KnoMyAT-12" value="&lt;font style=&quot;font-size: 30px&quot;&gt;V&lt;/font&gt;" style="rounded=0;whiteSpace=wrap;html=1;" parent="e_gC2h08NWML-KnoMyAT-1" vertex="1">
                    <mxGeometry x="200" y="80" width="60" height="60" as="geometry"/>
                </mxCell>
                <mxCell id="e_gC2h08NWML-KnoMyAT-13" value="&lt;font style=&quot;font-size: 30px&quot;&gt;X&lt;/font&gt;" style="rounded=0;whiteSpace=wrap;html=1;" parent="e_gC2h08NWML-KnoMyAT-1" vertex="1">
                    <mxGeometry x="440" y="80" width="60" height="60" as="geometry"/>
                </mxCell>
                <mxCell id="e_gC2h08NWML-KnoMyAT-14" value="&lt;font style=&quot;font-size: 30px&quot;&gt;Y&lt;/font&gt;" style="rounded=0;whiteSpace=wrap;html=1;" parent="e_gC2h08NWML-KnoMyAT-1" vertex="1">
                    <mxGeometry x="620" y="80" width="60" height="60" as="geometry"/>
                </mxCell>
                <mxCell id="e_gC2h08NWML-KnoMyAT-15" value="&lt;font style=&quot;font-size: 30px&quot;&gt;X&lt;/font&gt;" style="rounded=0;whiteSpace=wrap;html=1;" parent="e_gC2h08NWML-KnoMyAT-1" vertex="1">
                    <mxGeometry x="560" y="80" width="60" height="60" as="geometry"/>
                </mxCell>
                <mxCell id="e_gC2h08NWML-KnoMyAT-16" value="&lt;span style=&quot;font-size: 30px&quot;&gt;X&lt;/span&gt;" style="rounded=0;whiteSpace=wrap;html=1;" parent="e_gC2h08NWML-KnoMyAT-1" vertex="1">
                    <mxGeometry x="-100" y="240" width="60" height="60" as="geometry"/>
                </mxCell>
                <mxCell id="e_gC2h08NWML-KnoMyAT-17" value="&lt;font style=&quot;font-size: 30px&quot;&gt;Y&lt;/font&gt;" style="rounded=0;whiteSpace=wrap;html=1;" parent="e_gC2h08NWML-KnoMyAT-1" vertex="1">
                    <mxGeometry x="-40" y="240" width="60" height="60" as="geometry"/>
                </mxCell>
                <mxCell id="e_gC2h08NWML-KnoMyAT-18" value="&lt;font style=&quot;font-size: 30px&quot;&gt;Z&lt;/font&gt;" style="rounded=0;whiteSpace=wrap;html=1;" parent="e_gC2h08NWML-KnoMyAT-1" vertex="1">
                    <mxGeometry x="140" y="240" width="60" height="60" as="geometry"/>
                </mxCell>
                <mxCell id="e_gC2h08NWML-KnoMyAT-19" value="&lt;font style=&quot;font-size: 30px&quot;&gt;Y&lt;/font&gt;" style="rounded=0;whiteSpace=wrap;html=1;" parent="e_gC2h08NWML-KnoMyAT-1" vertex="1">
                    <mxGeometry x="80" y="240" width="60" height="60" as="geometry"/>
                </mxCell>
                <mxCell id="e_gC2h08NWML-KnoMyAT-20" value="&lt;font style=&quot;font-size: 30px&quot;&gt;X&lt;/font&gt;" style="rounded=0;whiteSpace=wrap;html=1;" parent="e_gC2h08NWML-KnoMyAT-1" vertex="1">
                    <mxGeometry x="20" y="240" width="60" height="60" as="geometry"/>
                </mxCell>
                <mxCell id="e_gC2h08NWML-KnoMyAT-22" value="文字列" style="text;strokeColor=none;fillColor=none;html=1;fontSize=24;fontStyle=1;verticalAlign=middle;align=center;" parent="e_gC2h08NWML-KnoMyAT-1" vertex="1">
                    <mxGeometry x="-210" y="30" width="100" height="40" as="geometry"/>
                </mxCell>
                <mxCell id="e_gC2h08NWML-KnoMyAT-23" value="探索文字列" style="text;strokeColor=none;fillColor=none;html=1;fontSize=24;fontStyle=1;verticalAlign=middle;align=center;" parent="e_gC2h08NWML-KnoMyAT-1" vertex="1">
                    <mxGeometry x="-200" y="190" width="100" height="40" as="geometry"/>
                </mxCell>
            </root>
        </mxGraphModel>
    </diagram>
    <diagram id="GB5bC-51A7hd-IDXpRvF" name="ページ2">
        <mxGraphModel dx="2136" dy="734" grid="1" gridSize="10" guides="1" tooltips="1" connect="1" arrows="1" fold="1" page="1" pageScale="1" pageWidth="827" pageHeight="1169" math="0" shadow="0">
            <root>
                <mxCell id="0"/>
                <mxCell id="1" parent="0"/>
                <mxCell id="17" value="&lt;font style=&quot;font-size: 30px&quot;&gt;Y&lt;/font&gt;" style="rounded=0;whiteSpace=wrap;html=1;" parent="1" vertex="1">
                    <mxGeometry x="80" y="190" width="60" height="60" as="geometry"/>
                </mxCell>
                <mxCell id="18" value="&lt;font style=&quot;font-size: 30px&quot;&gt;Y&lt;/font&gt;" style="rounded=0;whiteSpace=wrap;html=1;" parent="1" vertex="1">
                    <mxGeometry x="-40" y="190" width="60" height="60" as="geometry"/>
                </mxCell>
                <mxCell id="19" value="&lt;font style=&quot;font-size: 30px&quot;&gt;X&lt;/font&gt;" style="rounded=0;whiteSpace=wrap;html=1;" parent="1" vertex="1">
                    <mxGeometry x="-100" y="190" width="60" height="60" as="geometry"/>
                </mxCell>
                <mxCell id="20" value="&lt;font style=&quot;font-size: 30px&quot;&gt;X&lt;/font&gt;" style="rounded=0;whiteSpace=wrap;html=1;" parent="1" vertex="1">
                    <mxGeometry x="20" y="190" width="60" height="60" as="geometry"/>
                </mxCell>
                <mxCell id="21" value="&lt;font style=&quot;font-size: 30px&quot;&gt;Z&lt;/font&gt;" style="rounded=0;whiteSpace=wrap;html=1;" parent="1" vertex="1">
                    <mxGeometry x="140" y="190" width="60" height="60" as="geometry"/>
                </mxCell>
                <mxCell id="24" value="1回目" style="text;html=1;align=center;verticalAlign=middle;resizable=0;points=[];autosize=1;strokeColor=none;fillColor=none;fontSize=30;" parent="1" vertex="1">
                    <mxGeometry x="-230" y="200" width="90" height="40" as="geometry"/>
                </mxCell>
                <mxCell id="25" value="BM法" style="text;strokeColor=none;fillColor=none;html=1;fontSize=24;fontStyle=1;verticalAlign=middle;align=center;" parent="1" vertex="1">
                    <mxGeometry x="-240" y="10" width="100" height="40" as="geometry"/>
                </mxCell>
                <mxCell id="27" value="×" style="text;strokeColor=none;fillColor=none;html=1;fontSize=24;fontStyle=1;verticalAlign=middle;align=center;" parent="1" vertex="1">
                    <mxGeometry x="-30" y="270" width="40" height="40" as="geometry"/>
                </mxCell>
                <mxCell id="28" value="⭕" style="text;strokeColor=none;fillColor=none;html=1;fontSize=24;fontStyle=1;verticalAlign=middle;align=center;" parent="1" vertex="1">
                    <mxGeometry x="30" y="270" width="40" height="40" as="geometry"/>
                </mxCell>
                <mxCell id="30" value="⭕" style="text;strokeColor=none;fillColor=none;html=1;fontSize=24;fontStyle=1;verticalAlign=middle;align=center;" parent="1" vertex="1">
                    <mxGeometry x="150" y="270" width="40" height="40" as="geometry"/>
                </mxCell>
                <mxCell id="31" value="⭕" style="text;strokeColor=none;fillColor=none;html=1;fontSize=24;fontStyle=1;verticalAlign=middle;align=center;" parent="1" vertex="1">
                    <mxGeometry x="90" y="270" width="40" height="40" as="geometry"/>
                </mxCell>
                <mxCell id="33" value="&lt;font style=&quot;font-size: 30px&quot;&gt;Y&lt;/font&gt;" style="rounded=0;whiteSpace=wrap;html=1;" parent="1" vertex="1">
                    <mxGeometry x="380" y="320" width="60" height="60" as="geometry"/>
                </mxCell>
                <mxCell id="34" value="&lt;font style=&quot;font-size: 30px&quot;&gt;Y&lt;/font&gt;" style="rounded=0;whiteSpace=wrap;html=1;" parent="1" vertex="1">
                    <mxGeometry x="260" y="320" width="60" height="60" as="geometry"/>
                </mxCell>
                <mxCell id="35" value="&lt;span style=&quot;font-size: 30px&quot;&gt;X&lt;/span&gt;" style="rounded=0;whiteSpace=wrap;html=1;" parent="1" vertex="1">
                    <mxGeometry x="200" y="320" width="60" height="60" as="geometry"/>
                </mxCell>
                <mxCell id="36" value="&lt;font style=&quot;font-size: 30px&quot;&gt;X&lt;/font&gt;" style="rounded=0;whiteSpace=wrap;html=1;" parent="1" vertex="1">
                    <mxGeometry x="320" y="320" width="60" height="60" as="geometry"/>
                </mxCell>
                <mxCell id="37" value="&lt;font style=&quot;font-size: 30px&quot;&gt;Z&lt;/font&gt;" style="rounded=0;whiteSpace=wrap;html=1;" parent="1" vertex="1">
                    <mxGeometry x="440" y="320" width="60" height="60" as="geometry"/>
                </mxCell>
                <mxCell id="40" value="2回目" style="text;html=1;align=center;verticalAlign=middle;resizable=0;points=[];autosize=1;strokeColor=none;fillColor=none;fontSize=30;" parent="1" vertex="1">
                    <mxGeometry x="-230" y="340" width="90" height="40" as="geometry"/>
                </mxCell>
                <mxCell id="45" value="×&lt;span style=&quot;color: rgba(0 , 0 , 0 , 0) ; font-family: monospace ; font-size: 0px ; font-weight: 400&quot;&gt;%3CmxGraphModel%3E%3Croot%3E%3CmxCell%20id%3D%220%22%2F%3E%3CmxCell%20id%3D%221%22%20parent%3D%220%22%2F%3E%3CmxCell%20id%3D%222%22%20value%3D%22%E2%AD%95%22%20style%3D%22text%3BstrokeColor%3Dnone%3BfillColor%3Dnone%3Bhtml%3D1%3BfontSize%3D24%3BfontStyle%3D1%3BverticalAlign%3Dmiddle%3Balign%3Dcenter%3B%22%20vertex%3D%221%22%20parent%3D%221%22%3E%3CmxGeometry%20x%3D%2230%22%20y%3D%22270%22%20width%3D%2240%22%20height%3D%2240%22%20as%3D%22geometry%22%2F%3E%3C%2FmxCell%3E%3C%2Froot%3E%3C%2FmxGraphModel%3E&lt;/span&gt;&lt;span style=&quot;color: rgba(0 , 0 , 0 , 0) ; font-family: monospace ; font-size: 0px ; font-weight: 400&quot;&gt;%3CmxGraphModel%3E%3Croot%3E%3CmxCell%20id%3D%220%22%2F%3E%3CmxCell%20id%3D%221%22%20parent%3D%220%22%2F%3E%3CmxCell%20id%3D%222%22%20value%3D%22%E2%AD%95%22%20style%3D%22text%3BstrokeColor%3Dnone%3BfillColor%3Dnone%3Bhtml%3D1%3BfontSize%3D24%3BfontStyle%3D1%3BverticalAlign%3Dmiddle%3Balign%3Dcenter%3B%22%20vertex%3D%221%22%20parent%3D%221%22%3E%3CmxGeometry%20x%3D%2230%22%20y%3D%22270%22%20width%3D%2240%22%20height%3D%2240%22%20as%3D%22geometry%22%2F%3E%3C%2FmxCell%3E%3C%2Froot%3E%3C%2FmxGraphModel%3E&lt;/span&gt;&lt;span style=&quot;color: rgba(0 , 0 , 0 , 0) ; font-family: monospace ; font-size: 0px ; font-weight: 400&quot;&gt;%3CmxGraphModel%3E%3Croot%3E%3CmxCell%20id%3D%220%22%2F%3E%3CmxCell%20id%3D%221%22%20parent%3D%220%22%2F%3E%3CmxCell%20id%3D%222%22%20value%3D%22%E2%AD%95%22%20style%3D%22text%3BstrokeColor%3Dnone%3BfillColor%3Dnone%3Bhtml%3D1%3BfontSize%3D24%3BfontStyle%3D1%3BverticalAlign%3Dmiddle%3Balign%3Dcenter%3B%22%20vertex%3D%221%22%20parent%3D%221%22%3E%3CmxGeometry%20x%3D%2230%22%20y%3D%22270%22%20width%3D%2240%22%20height%3D%2240%22%20as%3D%22geometry%22%2F%3E%3C%2FmxCell%3E%3C%2Froot%3E%3C%2FmxGraphModel%3E&lt;/span&gt;" style="text;strokeColor=none;fillColor=none;html=1;fontSize=24;fontStyle=1;verticalAlign=middle;align=center;" parent="1" vertex="1">
                    <mxGeometry x="450" y="400" width="40" height="40" as="geometry"/>
                </mxCell>
                <mxCell id="48" value="&lt;font style=&quot;font-size: 30px&quot;&gt;Y&lt;/font&gt;" style="rounded=0;whiteSpace=wrap;html=1;" parent="1" vertex="1">
                    <mxGeometry x="500" y="465" width="60" height="60" as="geometry"/>
                </mxCell>
                <mxCell id="49" value="&lt;font style=&quot;font-size: 30px&quot;&gt;Y&lt;/font&gt;" style="rounded=0;whiteSpace=wrap;html=1;" parent="1" vertex="1">
                    <mxGeometry x="380" y="465" width="60" height="60" as="geometry"/>
                </mxCell>
                <mxCell id="50" value="&lt;font style=&quot;font-size: 30px&quot;&gt;X&lt;/font&gt;" style="rounded=0;whiteSpace=wrap;html=1;" parent="1" vertex="1">
                    <mxGeometry x="320" y="465" width="60" height="60" as="geometry"/>
                </mxCell>
                <mxCell id="51" value="&lt;font style=&quot;font-size: 30px&quot;&gt;X&lt;/font&gt;" style="rounded=0;whiteSpace=wrap;html=1;" parent="1" vertex="1">
                    <mxGeometry x="440" y="465" width="60" height="60" as="geometry"/>
                </mxCell>
                <mxCell id="52" value="&lt;font style=&quot;font-size: 30px&quot;&gt;Z&lt;/font&gt;" style="rounded=0;whiteSpace=wrap;html=1;" parent="1" vertex="1">
                    <mxGeometry x="560" y="465" width="60" height="60" as="geometry"/>
                </mxCell>
                <mxCell id="55" value="3回目" style="text;html=1;align=center;verticalAlign=middle;resizable=0;points=[];autosize=1;strokeColor=none;fillColor=none;fontSize=30;" parent="1" vertex="1">
                    <mxGeometry x="-230" y="475" width="90" height="40" as="geometry"/>
                </mxCell>
                <mxCell id="60" value="×" style="text;strokeColor=none;fillColor=none;html=1;fontSize=24;fontStyle=1;verticalAlign=middle;align=center;" parent="1" vertex="1">
                    <mxGeometry x="570" y="545" width="40" height="40" as="geometry"/>
                </mxCell>
                <mxCell id="63" value="&lt;font style=&quot;font-size: 30px&quot;&gt;Y&lt;/font&gt;" style="rounded=0;whiteSpace=wrap;html=1;" parent="1" vertex="1">
                    <mxGeometry x="620" y="600" width="60" height="60" as="geometry"/>
                </mxCell>
                <mxCell id="64" value="&lt;font style=&quot;font-size: 30px&quot;&gt;Y&lt;/font&gt;" style="rounded=0;whiteSpace=wrap;html=1;" parent="1" vertex="1">
                    <mxGeometry x="500" y="600" width="60" height="60" as="geometry"/>
                </mxCell>
                <mxCell id="65" value="&lt;span style=&quot;font-size: 30px&quot;&gt;X&lt;/span&gt;" style="rounded=0;whiteSpace=wrap;html=1;" parent="1" vertex="1">
                    <mxGeometry x="440" y="600" width="60" height="60" as="geometry"/>
                </mxCell>
                <mxCell id="66" value="&lt;font style=&quot;font-size: 30px&quot;&gt;X&lt;/font&gt;" style="rounded=0;whiteSpace=wrap;html=1;" parent="1" vertex="1">
                    <mxGeometry x="560" y="600" width="60" height="60" as="geometry"/>
                </mxCell>
                <mxCell id="67" value="&lt;span style=&quot;font-size: 30px&quot;&gt;Z&lt;/span&gt;" style="rounded=0;whiteSpace=wrap;html=1;" parent="1" vertex="1">
                    <mxGeometry x="680" y="600" width="60" height="60" as="geometry"/>
                </mxCell>
                <mxCell id="70" value="⭕" style="text;strokeColor=none;fillColor=none;html=1;fontSize=24;fontStyle=1;verticalAlign=middle;align=center;" parent="1" vertex="1">
                    <mxGeometry x="450" y="680" width="40" height="40" as="geometry"/>
                </mxCell>
                <mxCell id="71" value="⭕" style="text;strokeColor=none;fillColor=none;html=1;fontSize=24;fontStyle=1;verticalAlign=middle;align=center;" parent="1" vertex="1">
                    <mxGeometry x="510" y="680" width="40" height="40" as="geometry"/>
                </mxCell>
                <mxCell id="72" value="⭕" style="text;strokeColor=none;fillColor=none;html=1;fontSize=24;fontStyle=1;verticalAlign=middle;align=center;" parent="1" vertex="1">
                    <mxGeometry x="570" y="680" width="40" height="40" as="geometry"/>
                </mxCell>
                <mxCell id="73" value="⭕" style="text;strokeColor=none;fillColor=none;html=1;fontSize=24;fontStyle=1;verticalAlign=middle;align=center;" parent="1" vertex="1">
                    <mxGeometry x="630" y="680" width="40" height="40" as="geometry"/>
                </mxCell>
                <mxCell id="74" value="⭕" style="text;strokeColor=none;fillColor=none;html=1;fontSize=24;fontStyle=1;verticalAlign=middle;align=center;" parent="1" vertex="1">
                    <mxGeometry x="690" y="680" width="40" height="40" as="geometry"/>
                </mxCell>
                <mxCell id="77" value="&lt;span style=&quot;color: rgb(0 , 0 , 0) ; font-family: &amp;#34;helvetica&amp;#34; ; font-size: 30px ; font-style: normal ; font-weight: 400 ; letter-spacing: normal ; text-align: center ; text-indent: 0px ; text-transform: none ; word-spacing: 0px ; background-color: rgb(248 , 249 , 250) ; display: inline ; float: none&quot;&gt;4回目&lt;/span&gt;" style="text;whiteSpace=wrap;html=1;fontSize=30;" parent="1" vertex="1">
                    <mxGeometry x="-220" y="615" width="100" height="50" as="geometry"/>
                </mxCell>
                <mxCell id="lcRoDySC-yhmXRLPq5TN-94" value="&lt;font style=&quot;font-size: 30px&quot;&gt;V&lt;/font&gt;" style="rounded=0;whiteSpace=wrap;html=1;" parent="1" vertex="1">
                    <mxGeometry x="-100" y="60" width="60" height="60" as="geometry"/>
                </mxCell>
                <mxCell id="lcRoDySC-yhmXRLPq5TN-95" value="&lt;font style=&quot;font-size: 30px&quot;&gt;Y&lt;/font&gt;" style="rounded=0;whiteSpace=wrap;html=1;" parent="1" vertex="1">
                    <mxGeometry x="260" y="60" width="60" height="60" as="geometry"/>
                </mxCell>
                <mxCell id="lcRoDySC-yhmXRLPq5TN-96" value="&lt;font style=&quot;font-size: 30px&quot;&gt;W&lt;/font&gt;" style="rounded=0;whiteSpace=wrap;html=1;" parent="1" vertex="1">
                    <mxGeometry x="-40" y="60" width="60" height="60" as="geometry"/>
                </mxCell>
                <mxCell id="lcRoDySC-yhmXRLPq5TN-97" value="&lt;font style=&quot;font-size: 30px&quot;&gt;Z&lt;br&gt;&lt;/font&gt;" style="rounded=0;whiteSpace=wrap;html=1;" parent="1" vertex="1">
                    <mxGeometry x="680" y="60" width="60" height="60" as="geometry"/>
                </mxCell>
                <mxCell id="lcRoDySC-yhmXRLPq5TN-98" value="&lt;font style=&quot;font-size: 30px&quot;&gt;Y&lt;/font&gt;" style="rounded=0;whiteSpace=wrap;html=1;" parent="1" vertex="1">
                    <mxGeometry x="500" y="60" width="60" height="60" as="geometry"/>
                </mxCell>
                <mxCell id="lcRoDySC-yhmXRLPq5TN-99" value="&lt;font style=&quot;font-size: 30px&quot;&gt;Z&lt;/font&gt;" style="rounded=0;whiteSpace=wrap;html=1;" parent="1" vertex="1">
                    <mxGeometry x="140" y="60" width="60" height="60" as="geometry"/>
                </mxCell>
                <mxCell id="lcRoDySC-yhmXRLPq5TN-100" value="&lt;font style=&quot;font-size: 30px&quot;&gt;W&lt;/font&gt;" style="rounded=0;whiteSpace=wrap;html=1;" parent="1" vertex="1">
                    <mxGeometry x="380" y="60" width="60" height="60" as="geometry"/>
                </mxCell>
                <mxCell id="lcRoDySC-yhmXRLPq5TN-101" value="&lt;font style=&quot;font-size: 30px&quot;&gt;Y&lt;/font&gt;" style="rounded=0;whiteSpace=wrap;html=1;" parent="1" vertex="1">
                    <mxGeometry x="80" y="60" width="60" height="60" as="geometry"/>
                </mxCell>
                <mxCell id="lcRoDySC-yhmXRLPq5TN-102" value="&lt;font style=&quot;font-size: 30px&quot;&gt;X&lt;/font&gt;" style="rounded=0;whiteSpace=wrap;html=1;" parent="1" vertex="1">
                    <mxGeometry x="20" y="60" width="60" height="60" as="geometry"/>
                </mxCell>
                <mxCell id="lcRoDySC-yhmXRLPq5TN-103" value="&lt;font style=&quot;font-size: 30px&quot;&gt;V&lt;/font&gt;" style="rounded=0;whiteSpace=wrap;html=1;" parent="1" vertex="1">
                    <mxGeometry x="320" y="60" width="60" height="60" as="geometry"/>
                </mxCell>
                <mxCell id="lcRoDySC-yhmXRLPq5TN-104" value="&lt;font style=&quot;font-size: 30px&quot;&gt;V&lt;/font&gt;" style="rounded=0;whiteSpace=wrap;html=1;" parent="1" vertex="1">
                    <mxGeometry x="200" y="60" width="60" height="60" as="geometry"/>
                </mxCell>
                <mxCell id="lcRoDySC-yhmXRLPq5TN-105" value="&lt;font style=&quot;font-size: 30px&quot;&gt;X&lt;/font&gt;" style="rounded=0;whiteSpace=wrap;html=1;" parent="1" vertex="1">
                    <mxGeometry x="440" y="60" width="60" height="60" as="geometry"/>
                </mxCell>
                <mxCell id="lcRoDySC-yhmXRLPq5TN-106" value="&lt;font style=&quot;font-size: 30px&quot;&gt;Y&lt;/font&gt;" style="rounded=0;whiteSpace=wrap;html=1;" parent="1" vertex="1">
                    <mxGeometry x="620" y="60" width="60" height="60" as="geometry"/>
                </mxCell>
                <mxCell id="lcRoDySC-yhmXRLPq5TN-107" value="&lt;font style=&quot;font-size: 30px&quot;&gt;X&lt;/font&gt;" style="rounded=0;whiteSpace=wrap;html=1;" parent="1" vertex="1">
                    <mxGeometry x="560" y="60" width="60" height="60" as="geometry"/>
                </mxCell>
                <mxCell id="lcRoDySC-yhmXRLPq5TN-111" value="Table" style="shape=table;startSize=30;container=1;collapsible=0;childLayout=tableLayout;fontStyle=1;align=center;pointerEvents=1;" parent="1" vertex="1">
                    <mxGeometry x="130" y="790" width="240" height="110" as="geometry"/>
                </mxCell>
                <mxCell id="lcRoDySC-yhmXRLPq5TN-112" value="" style="shape=partialRectangle;html=1;whiteSpace=wrap;collapsible=0;dropTarget=0;pointerEvents=0;fillColor=none;top=0;left=0;bottom=0;right=0;points=[[0,0.5],[1,0.5]];portConstraint=eastwest;" parent="lcRoDySC-yhmXRLPq5TN-111" vertex="1">
                    <mxGeometry y="30" width="240" height="40" as="geometry"/>
                </mxCell>
                <mxCell id="lcRoDySC-yhmXRLPq5TN-113" value="X" style="shape=partialRectangle;html=1;whiteSpace=wrap;connectable=0;fillColor=none;top=0;left=0;bottom=0;right=0;overflow=hidden;pointerEvents=1;" parent="lcRoDySC-yhmXRLPq5TN-112" vertex="1">
                    <mxGeometry width="60" height="40" as="geometry">
                        <mxRectangle width="60" height="40" as="alternateBounds"/>
                    </mxGeometry>
                </mxCell>
                <mxCell id="lcRoDySC-yhmXRLPq5TN-114" value="Y" style="shape=partialRectangle;html=1;whiteSpace=wrap;connectable=0;fillColor=none;top=0;left=0;bottom=0;right=0;overflow=hidden;pointerEvents=1;" parent="lcRoDySC-yhmXRLPq5TN-112" vertex="1">
                    <mxGeometry x="60" width="60" height="40" as="geometry">
                        <mxRectangle width="60" height="40" as="alternateBounds"/>
                    </mxGeometry>
                </mxCell>
                <mxCell id="lcRoDySC-yhmXRLPq5TN-115" value="Z" style="shape=partialRectangle;html=1;whiteSpace=wrap;connectable=0;fillColor=none;top=0;left=0;bottom=0;right=0;overflow=hidden;pointerEvents=1;" parent="lcRoDySC-yhmXRLPq5TN-112" vertex="1">
                    <mxGeometry x="120" width="60" height="40" as="geometry">
                        <mxRectangle width="60" height="40" as="alternateBounds"/>
                    </mxGeometry>
                </mxCell>
                <mxCell id="lcRoDySC-yhmXRLPq5TN-128" value="その他" style="shape=partialRectangle;html=1;whiteSpace=wrap;connectable=0;fillColor=none;top=0;left=0;bottom=0;right=0;overflow=hidden;pointerEvents=1;" parent="lcRoDySC-yhmXRLPq5TN-112" vertex="1">
                    <mxGeometry x="180" width="60" height="40" as="geometry">
                        <mxRectangle width="60" height="40" as="alternateBounds"/>
                    </mxGeometry>
                </mxCell>
                <mxCell id="lcRoDySC-yhmXRLPq5TN-116" value="" style="shape=partialRectangle;html=1;whiteSpace=wrap;collapsible=0;dropTarget=0;pointerEvents=0;fillColor=none;top=0;left=0;bottom=0;right=0;points=[[0,0.5],[1,0.5]];portConstraint=eastwest;" parent="lcRoDySC-yhmXRLPq5TN-111" vertex="1">
                    <mxGeometry y="70" width="240" height="40" as="geometry"/>
                </mxCell>
                <mxCell id="lcRoDySC-yhmXRLPq5TN-117" value="2" style="shape=partialRectangle;html=1;whiteSpace=wrap;connectable=0;fillColor=none;top=0;left=0;bottom=0;right=0;overflow=hidden;pointerEvents=1;" parent="lcRoDySC-yhmXRLPq5TN-116" vertex="1">
                    <mxGeometry width="60" height="40" as="geometry">
                        <mxRectangle width="60" height="40" as="alternateBounds"/>
                    </mxGeometry>
                </mxCell>
                <mxCell id="lcRoDySC-yhmXRLPq5TN-118" value="1" style="shape=partialRectangle;html=1;whiteSpace=wrap;connectable=0;fillColor=none;top=0;left=0;bottom=0;right=0;overflow=hidden;pointerEvents=1;" parent="lcRoDySC-yhmXRLPq5TN-116" vertex="1">
                    <mxGeometry x="60" width="60" height="40" as="geometry">
                        <mxRectangle width="60" height="40" as="alternateBounds"/>
                    </mxGeometry>
                </mxCell>
                <mxCell id="lcRoDySC-yhmXRLPq5TN-119" value="0" style="shape=partialRectangle;html=1;whiteSpace=wrap;connectable=0;fillColor=none;top=0;left=0;bottom=0;right=0;overflow=hidden;pointerEvents=1;" parent="lcRoDySC-yhmXRLPq5TN-116" vertex="1">
                    <mxGeometry x="120" width="60" height="40" as="geometry">
                        <mxRectangle width="60" height="40" as="alternateBounds"/>
                    </mxGeometry>
                </mxCell>
                <mxCell id="lcRoDySC-yhmXRLPq5TN-129" value="5" style="shape=partialRectangle;html=1;whiteSpace=wrap;connectable=0;fillColor=none;top=0;left=0;bottom=0;right=0;overflow=hidden;pointerEvents=1;" parent="lcRoDySC-yhmXRLPq5TN-116" vertex="1">
                    <mxGeometry x="180" width="60" height="40" as="geometry">
                        <mxRectangle width="60" height="40" as="alternateBounds"/>
                    </mxGeometry>
                </mxCell>
            </root>
        </mxGraphModel>
    </diagram>
</mxfile>